# xmcd CD database file
#
# Track frame offsets:
#	225
#	12797
#	25623
#	40076
#	53770
#	68249
#	81467
#	94518
#	109440
#	124131
#	136982
#	150372
#	164067
#	178340
#	190828
#
# Disc length: 2747 seconds
#
# Revision: 2
# Processed by: cddbd v1.5.2PL0 Copyright (c) Steve Scherf et al.
# Submitted via: CDex 1.70beta2
#
DISCID=c60ab80f
DTITLE=Miles Davis - Mile Stone
DYEAR=1900
DGENRE=Jazz
TTITLE0=Mile Stone
TTITLE1=Bring It On Home
TTITLE2=Baby, Won't You Make Up Your Mind
TTITLE3=Don't Explain To Me Baby
TTITLE4=Birds Of Paradise
TTITLE5=Don't Sing Me The Blues
TTITLE6=Little Willie Leapes
TTITLE7=Sippin' At Bells
TTITLE8=Deep Sea Blues
TTITLE9=Pointless Mama Blues
TTITLE10=Thriving On A Riff
TTITLE11=You Left Me All Alone
TTITLE12=I've Always Got The Blues
TTITLE13=Half Nelson
TTITLE14=Embraceable You
EXTD=
EXTT0=
EXTT1=
EXTT2=
EXTT3=
EXTT4=
EXTT5=
EXTT6=
EXTT7=
EXTT8=
EXTT9=
EXTT10=
EXTT11=
EXTT12=
EXTT13=
EXTT14=
PLAYORDER=
